<mxfile host="app.diagrams.net" modified="2023-06-19T07:15:45.837Z" agent="Mozilla/5.0 (Windows NT 10.0; Win64; x64) AppleWebKit/537.36 (KHTML, like Gecko) Chrome/112.0.0.0 Safari/537.36" etag="HucGLCV4ynVfwxklPLjw" version="21.1.8" type="device" pages="3">
  <diagram name="节点同步" id="0r4W0mZ0kdsFtpoNXVr2">
    <mxGraphModel dx="1434" dy="708" grid="1" gridSize="10" guides="1" tooltips="1" connect="1" arrows="1" fold="1" page="1" pageScale="1" pageWidth="827" pageHeight="1169" math="0" shadow="0">
      <root>
        <mxCell id="0" />
        <mxCell id="1" parent="0" />
        <mxCell id="zHjzuyjQNDvdh1E7tYnp-1" value="" style="edgeStyle=orthogonalEdgeStyle;rounded=0;orthogonalLoop=1;jettySize=auto;html=1;fontSize=16;" edge="1" parent="1" source="zHjzuyjQNDvdh1E7tYnp-2" target="zHjzuyjQNDvdh1E7tYnp-4">
          <mxGeometry relative="1" as="geometry" />
        </mxCell>
        <mxCell id="zHjzuyjQNDvdh1E7tYnp-2" value="开始" style="ellipse;whiteSpace=wrap;html=1;fontSize=16;rounded=0;" vertex="1" parent="1">
          <mxGeometry x="510" y="150" width="120" height="60" as="geometry" />
        </mxCell>
        <mxCell id="zHjzuyjQNDvdh1E7tYnp-3" value="" style="edgeStyle=orthogonalEdgeStyle;rounded=0;orthogonalLoop=1;jettySize=auto;html=1;fontSize=16;" edge="1" parent="1" source="zHjzuyjQNDvdh1E7tYnp-4" target="zHjzuyjQNDvdh1E7tYnp-6">
          <mxGeometry relative="1" as="geometry" />
        </mxCell>
        <mxCell id="zHjzuyjQNDvdh1E7tYnp-4" value="初始化节点" style="whiteSpace=wrap;html=1;fontSize=16;" vertex="1" parent="1">
          <mxGeometry x="510" y="320" width="120" height="60" as="geometry" />
        </mxCell>
        <mxCell id="zHjzuyjQNDvdh1E7tYnp-5" value="是，自动触发" style="edgeStyle=orthogonalEdgeStyle;rounded=0;orthogonalLoop=1;jettySize=auto;html=1;fontSize=16;" edge="1" parent="1" source="zHjzuyjQNDvdh1E7tYnp-11" target="zHjzuyjQNDvdh1E7tYnp-8">
          <mxGeometry relative="1" as="geometry">
            <mxPoint as="offset" />
          </mxGeometry>
        </mxCell>
        <mxCell id="zHjzuyjQNDvdh1E7tYnp-6" value="配置节点仓库&lt;br&gt;环境信息" style="verticalLabelPosition=middle;verticalAlign=middle;html=1;shape=trapezoid;perimeter=trapezoidPerimeter;whiteSpace=wrap;size=0.23;arcSize=10;flipV=1;labelPosition=center;align=center;fontSize=16;" vertex="1" parent="1">
          <mxGeometry x="510" y="460" width="120" height="70" as="geometry" />
        </mxCell>
        <mxCell id="zHjzuyjQNDvdh1E7tYnp-7" value="" style="edgeStyle=orthogonalEdgeStyle;rounded=0;orthogonalLoop=1;jettySize=auto;html=1;fontSize=16;" edge="1" parent="1" source="zHjzuyjQNDvdh1E7tYnp-8" target="zHjzuyjQNDvdh1E7tYnp-16">
          <mxGeometry relative="1" as="geometry" />
        </mxCell>
        <mxCell id="zHjzuyjQNDvdh1E7tYnp-8" value="同步应用" style="whiteSpace=wrap;html=1;fontSize=16;" vertex="1" parent="1">
          <mxGeometry x="510" y="750" width="120" height="60" as="geometry" />
        </mxCell>
        <mxCell id="zHjzuyjQNDvdh1E7tYnp-9" value="" style="edgeStyle=orthogonalEdgeStyle;rounded=0;orthogonalLoop=1;jettySize=auto;html=1;fontSize=16;" edge="1" parent="1" source="zHjzuyjQNDvdh1E7tYnp-6" target="zHjzuyjQNDvdh1E7tYnp-11">
          <mxGeometry relative="1" as="geometry">
            <mxPoint x="570" y="550" as="sourcePoint" />
            <mxPoint x="570" y="700" as="targetPoint" />
          </mxGeometry>
        </mxCell>
        <mxCell id="zHjzuyjQNDvdh1E7tYnp-10" value="否" style="edgeStyle=orthogonalEdgeStyle;rounded=0;orthogonalLoop=1;jettySize=auto;html=1;fontSize=16;" edge="1" parent="1" source="zHjzuyjQNDvdh1E7tYnp-11" target="zHjzuyjQNDvdh1E7tYnp-13">
          <mxGeometry relative="1" as="geometry" />
        </mxCell>
        <mxCell id="zHjzuyjQNDvdh1E7tYnp-11" value="成功？" style="rhombus;whiteSpace=wrap;html=1;fontSize=16;" vertex="1" parent="1">
          <mxGeometry x="530" y="600" width="80" height="80" as="geometry" />
        </mxCell>
        <mxCell id="zHjzuyjQNDvdh1E7tYnp-12" style="edgeStyle=orthogonalEdgeStyle;rounded=0;orthogonalLoop=1;jettySize=auto;html=1;exitX=0.5;exitY=0;exitDx=0;exitDy=0;fontSize=16;entryX=0;entryY=0.833;entryDx=0;entryDy=0;entryPerimeter=0;" edge="1" parent="1" source="zHjzuyjQNDvdh1E7tYnp-13" target="zHjzuyjQNDvdh1E7tYnp-6">
          <mxGeometry relative="1" as="geometry" />
        </mxCell>
        <mxCell id="zHjzuyjQNDvdh1E7tYnp-13" value="重试" style="whiteSpace=wrap;html=1;fontSize=16;" vertex="1" parent="1">
          <mxGeometry x="290" y="610" width="120" height="60" as="geometry" />
        </mxCell>
        <mxCell id="zHjzuyjQNDvdh1E7tYnp-14" value="否" style="edgeStyle=orthogonalEdgeStyle;rounded=0;orthogonalLoop=1;jettySize=auto;html=1;fontSize=16;" edge="1" parent="1" source="zHjzuyjQNDvdh1E7tYnp-16" target="zHjzuyjQNDvdh1E7tYnp-18">
          <mxGeometry relative="1" as="geometry" />
        </mxCell>
        <mxCell id="zHjzuyjQNDvdh1E7tYnp-15" value="是" style="edgeStyle=orthogonalEdgeStyle;rounded=0;orthogonalLoop=1;jettySize=auto;html=1;fontSize=16;" edge="1" parent="1" source="zHjzuyjQNDvdh1E7tYnp-16" target="zHjzuyjQNDvdh1E7tYnp-19">
          <mxGeometry relative="1" as="geometry" />
        </mxCell>
        <mxCell id="zHjzuyjQNDvdh1E7tYnp-16" value="成功？" style="rhombus;whiteSpace=wrap;html=1;fontSize=16;" vertex="1" parent="1">
          <mxGeometry x="530" y="880" width="80" height="80" as="geometry" />
        </mxCell>
        <mxCell id="zHjzuyjQNDvdh1E7tYnp-17" style="edgeStyle=orthogonalEdgeStyle;rounded=0;orthogonalLoop=1;jettySize=auto;html=1;entryX=0;entryY=0.5;entryDx=0;entryDy=0;exitX=0.5;exitY=0;exitDx=0;exitDy=0;fontSize=16;" edge="1" parent="1" source="zHjzuyjQNDvdh1E7tYnp-18" target="zHjzuyjQNDvdh1E7tYnp-8">
          <mxGeometry relative="1" as="geometry" />
        </mxCell>
        <mxCell id="zHjzuyjQNDvdh1E7tYnp-18" value="手动触发" style="whiteSpace=wrap;html=1;fontSize=16;" vertex="1" parent="1">
          <mxGeometry x="290" y="890" width="120" height="60" as="geometry" />
        </mxCell>
        <mxCell id="zHjzuyjQNDvdh1E7tYnp-19" value="结束" style="ellipse;whiteSpace=wrap;html=1;fontSize=16;" vertex="1" parent="1">
          <mxGeometry x="510" y="1050" width="120" height="80" as="geometry" />
        </mxCell>
      </root>
    </mxGraphModel>
  </diagram>
  <diagram id="1lIacEoR9I8lKMDqkPzS" name="应用对比">
    <mxGraphModel dx="1434" dy="708" grid="1" gridSize="10" guides="1" tooltips="1" connect="1" arrows="1" fold="1" page="1" pageScale="1" pageWidth="827" pageHeight="1169" math="0" shadow="0">
      <root>
        <mxCell id="0" />
        <mxCell id="1" parent="0" />
        <mxCell id="Ws70UK4Lm4O5vBecSB7m-1" value="" style="edgeStyle=orthogonalEdgeStyle;rounded=0;orthogonalLoop=1;jettySize=auto;html=1;fontSize=16;" edge="1" parent="1" source="Ws70UK4Lm4O5vBecSB7m-2" target="Ws70UK4Lm4O5vBecSB7m-4">
          <mxGeometry relative="1" as="geometry" />
        </mxCell>
        <mxCell id="Ws70UK4Lm4O5vBecSB7m-2" value="开始" style="ellipse;whiteSpace=wrap;html=1;fontSize=16;" vertex="1" parent="1">
          <mxGeometry x="354" y="30" width="120" height="80" as="geometry" />
        </mxCell>
        <mxCell id="Ws70UK4Lm4O5vBecSB7m-3" value="" style="edgeStyle=orthogonalEdgeStyle;rounded=0;orthogonalLoop=1;jettySize=auto;html=1;fontSize=16;" edge="1" parent="1" source="Ws70UK4Lm4O5vBecSB7m-4" target="Ws70UK4Lm4O5vBecSB7m-6">
          <mxGeometry relative="1" as="geometry" />
        </mxCell>
        <mxCell id="Ws70UK4Lm4O5vBecSB7m-4" value="获取节点列表" style="shape=process;whiteSpace=wrap;html=1;backgroundOutline=1;fontSize=16;" vertex="1" parent="1">
          <mxGeometry x="354" y="200" width="120" height="60" as="geometry" />
        </mxCell>
        <mxCell id="Ws70UK4Lm4O5vBecSB7m-5" value="对比" style="edgeStyle=orthogonalEdgeStyle;rounded=0;orthogonalLoop=1;jettySize=auto;html=1;fontSize=16;" edge="1" parent="1" source="Ws70UK4Lm4O5vBecSB7m-6" target="Ws70UK4Lm4O5vBecSB7m-8">
          <mxGeometry relative="1" as="geometry" />
        </mxCell>
        <mxCell id="Ws70UK4Lm4O5vBecSB7m-6" value="选择源节点&lt;br&gt;和目标节点" style="whiteSpace=wrap;html=1;fontSize=16;" vertex="1" parent="1">
          <mxGeometry x="354" y="340" width="120" height="60" as="geometry" />
        </mxCell>
        <mxCell id="Ws70UK4Lm4O5vBecSB7m-7" value="" style="edgeStyle=orthogonalEdgeStyle;rounded=0;orthogonalLoop=1;jettySize=auto;html=1;fontSize=16;" edge="1" parent="1" source="Ws70UK4Lm4O5vBecSB7m-23" target="Ws70UK4Lm4O5vBecSB7m-10">
          <mxGeometry relative="1" as="geometry" />
        </mxCell>
        <mxCell id="Ws70UK4Lm4O5vBecSB7m-8" value="获得差异列表" style="whiteSpace=wrap;html=1;fontSize=16;" vertex="1" parent="1">
          <mxGeometry x="354" y="480" width="120" height="60" as="geometry" />
        </mxCell>
        <mxCell id="Ws70UK4Lm4O5vBecSB7m-9" value="是" style="edgeStyle=orthogonalEdgeStyle;rounded=0;orthogonalLoop=1;jettySize=auto;html=1;fontSize=16;" edge="1" parent="1" source="Ws70UK4Lm4O5vBecSB7m-10" target="Ws70UK4Lm4O5vBecSB7m-14">
          <mxGeometry relative="1" as="geometry">
            <mxPoint as="offset" />
          </mxGeometry>
        </mxCell>
        <mxCell id="Ws70UK4Lm4O5vBecSB7m-10" value="生成模板？" style="rhombus;whiteSpace=wrap;html=1;fontSize=16;" vertex="1" parent="1">
          <mxGeometry x="374" y="740" width="80" height="80" as="geometry" />
        </mxCell>
        <mxCell id="Ws70UK4Lm4O5vBecSB7m-11" value="相同" style="edgeStyle=orthogonalEdgeStyle;rounded=0;orthogonalLoop=1;jettySize=auto;html=1;fontSize=16;" edge="1" parent="1" source="Ws70UK4Lm4O5vBecSB7m-14" target="Ws70UK4Lm4O5vBecSB7m-16">
          <mxGeometry relative="1" as="geometry" />
        </mxCell>
        <mxCell id="Ws70UK4Lm4O5vBecSB7m-12" value="否" style="edgeStyle=orthogonalEdgeStyle;rounded=0;orthogonalLoop=1;jettySize=auto;html=1;fontSize=16;" edge="1" parent="1" source="Ws70UK4Lm4O5vBecSB7m-10" target="Ws70UK4Lm4O5vBecSB7m-17">
          <mxGeometry relative="1" as="geometry" />
        </mxCell>
        <mxCell id="Ws70UK4Lm4O5vBecSB7m-13" value="不同" style="edgeStyle=orthogonalEdgeStyle;rounded=0;orthogonalLoop=1;jettySize=auto;html=1;fontSize=16;" edge="1" parent="1" source="Ws70UK4Lm4O5vBecSB7m-14" target="Ws70UK4Lm4O5vBecSB7m-19">
          <mxGeometry relative="1" as="geometry" />
        </mxCell>
        <mxCell id="Ws70UK4Lm4O5vBecSB7m-14" value="节点类型？" style="rhombus;whiteSpace=wrap;html=1;fontSize=16;" vertex="1" parent="1">
          <mxGeometry x="600" y="740" width="80" height="80" as="geometry" />
        </mxCell>
        <mxCell id="Ws70UK4Lm4O5vBecSB7m-15" style="edgeStyle=orthogonalEdgeStyle;rounded=0;orthogonalLoop=1;jettySize=auto;html=1;fontSize=16;" edge="1" parent="1" source="Ws70UK4Lm4O5vBecSB7m-16" target="Ws70UK4Lm4O5vBecSB7m-21">
          <mxGeometry relative="1" as="geometry" />
        </mxCell>
        <mxCell id="Ws70UK4Lm4O5vBecSB7m-16" value="生成模板" style="shape=process;whiteSpace=wrap;html=1;backgroundOutline=1;fontSize=16;" vertex="1" parent="1">
          <mxGeometry x="820" y="750" width="120" height="60" as="geometry" />
        </mxCell>
        <mxCell id="Ws70UK4Lm4O5vBecSB7m-17" value="结束" style="ellipse;whiteSpace=wrap;html=1;fontSize=16;" vertex="1" parent="1">
          <mxGeometry x="354" y="900" width="120" height="80" as="geometry" />
        </mxCell>
        <mxCell id="Ws70UK4Lm4O5vBecSB7m-18" style="edgeStyle=orthogonalEdgeStyle;rounded=0;orthogonalLoop=1;jettySize=auto;html=1;fontSize=16;" edge="1" parent="1" source="Ws70UK4Lm4O5vBecSB7m-19" target="Ws70UK4Lm4O5vBecSB7m-20">
          <mxGeometry relative="1" as="geometry" />
        </mxCell>
        <mxCell id="Ws70UK4Lm4O5vBecSB7m-19" value="提示无法生成" style="whiteSpace=wrap;html=1;fontSize=16;" vertex="1" parent="1">
          <mxGeometry x="580" y="910" width="120" height="60" as="geometry" />
        </mxCell>
        <mxCell id="Ws70UK4Lm4O5vBecSB7m-20" value="结束" style="ellipse;whiteSpace=wrap;html=1;fontSize=16;" vertex="1" parent="1">
          <mxGeometry x="580" y="1020" width="120" height="80" as="geometry" />
        </mxCell>
        <mxCell id="Ws70UK4Lm4O5vBecSB7m-21" value="结束" style="ellipse;whiteSpace=wrap;html=1;fontSize=16;" vertex="1" parent="1">
          <mxGeometry x="820" y="890" width="120" height="80" as="geometry" />
        </mxCell>
        <mxCell id="Ws70UK4Lm4O5vBecSB7m-22" value="" style="edgeStyle=orthogonalEdgeStyle;rounded=0;orthogonalLoop=1;jettySize=auto;html=1;fontSize=16;" edge="1" parent="1" source="Ws70UK4Lm4O5vBecSB7m-8" target="Ws70UK4Lm4O5vBecSB7m-23">
          <mxGeometry relative="1" as="geometry">
            <mxPoint x="414" y="540" as="sourcePoint" />
            <mxPoint x="414" y="700" as="targetPoint" />
          </mxGeometry>
        </mxCell>
        <mxCell id="Ws70UK4Lm4O5vBecSB7m-23" value="选择版本不一致&lt;br style=&quot;font-size: 16px;&quot;&gt;的应用" style="verticalLabelPosition=middle;verticalAlign=middle;html=1;shape=trapezoid;perimeter=trapezoidPerimeter;whiteSpace=wrap;size=0.23;arcSize=10;flipV=1;labelPosition=center;align=center;rounded=0;fontSize=16;" vertex="1" parent="1">
          <mxGeometry x="356" y="610" width="116" height="70" as="geometry" />
        </mxCell>
      </root>
    </mxGraphModel>
  </diagram>
  <diagram id="VB7XPJgmroXS6UN7CWw6" name="应用同步">
    <mxGraphModel dx="1434" dy="708" grid="1" gridSize="10" guides="1" tooltips="1" connect="1" arrows="1" fold="1" page="1" pageScale="1" pageWidth="827" pageHeight="1169" math="0" shadow="0">
      <root>
        <mxCell id="0" />
        <mxCell id="1" parent="0" />
        <mxCell id="nh_kpFUz8vDS3uLYSLqD-1" value="" style="edgeStyle=orthogonalEdgeStyle;rounded=0;orthogonalLoop=1;jettySize=auto;html=1;fontSize=16;" edge="1" parent="1" source="nh_kpFUz8vDS3uLYSLqD-2" target="nh_kpFUz8vDS3uLYSLqD-4">
          <mxGeometry relative="1" as="geometry">
            <mxPoint x="310" y="200" as="targetPoint" />
          </mxGeometry>
        </mxCell>
        <mxCell id="nh_kpFUz8vDS3uLYSLqD-2" value="开始" style="ellipse;whiteSpace=wrap;html=1;fontSize=16;" vertex="1" parent="1">
          <mxGeometry x="250" y="40" width="120" height="80" as="geometry" />
        </mxCell>
        <mxCell id="nh_kpFUz8vDS3uLYSLqD-3" value="" style="edgeStyle=orthogonalEdgeStyle;rounded=0;orthogonalLoop=1;jettySize=auto;html=1;fontSize=16;" edge="1" parent="1" source="nh_kpFUz8vDS3uLYSLqD-4" target="nh_kpFUz8vDS3uLYSLqD-7">
          <mxGeometry relative="1" as="geometry" />
        </mxCell>
        <mxCell id="nh_kpFUz8vDS3uLYSLqD-4" value="查询对应节点应用" style="rounded=0;whiteSpace=wrap;html=1;fontSize=16;" vertex="1" parent="1">
          <mxGeometry x="250" y="190" width="120" height="60" as="geometry" />
        </mxCell>
        <mxCell id="nh_kpFUz8vDS3uLYSLqD-5" value="是，自动" style="edgeStyle=orthogonalEdgeStyle;rounded=0;orthogonalLoop=1;jettySize=auto;html=1;fontSize=16;" edge="1" parent="1" source="nh_kpFUz8vDS3uLYSLqD-7" target="nh_kpFUz8vDS3uLYSLqD-9">
          <mxGeometry relative="1" as="geometry">
            <Array as="points">
              <mxPoint x="310" y="450" />
              <mxPoint x="310" y="450" />
            </Array>
          </mxGeometry>
        </mxCell>
        <mxCell id="nh_kpFUz8vDS3uLYSLqD-6" value="否" style="edgeStyle=orthogonalEdgeStyle;rounded=0;orthogonalLoop=1;jettySize=auto;html=1;fontSize=16;" edge="1" parent="1" source="nh_kpFUz8vDS3uLYSLqD-7" target="nh_kpFUz8vDS3uLYSLqD-16">
          <mxGeometry relative="1" as="geometry" />
        </mxCell>
        <mxCell id="nh_kpFUz8vDS3uLYSLqD-7" value="节点在线？" style="rhombus;whiteSpace=wrap;html=1;rounded=0;fontSize=16;" vertex="1" parent="1">
          <mxGeometry x="270" y="320" width="80" height="80" as="geometry" />
        </mxCell>
        <mxCell id="nh_kpFUz8vDS3uLYSLqD-8" value="" style="edgeStyle=orthogonalEdgeStyle;rounded=0;orthogonalLoop=1;jettySize=auto;html=1;fontSize=16;" edge="1" parent="1" source="nh_kpFUz8vDS3uLYSLqD-9" target="nh_kpFUz8vDS3uLYSLqD-12">
          <mxGeometry relative="1" as="geometry" />
        </mxCell>
        <mxCell id="nh_kpFUz8vDS3uLYSLqD-9" value="同步/更新应用" style="whiteSpace=wrap;html=1;rounded=0;fontSize=16;" vertex="1" parent="1">
          <mxGeometry x="250" y="490" width="120" height="60" as="geometry" />
        </mxCell>
        <mxCell id="nh_kpFUz8vDS3uLYSLqD-10" value="否" style="edgeStyle=orthogonalEdgeStyle;rounded=0;orthogonalLoop=1;jettySize=auto;html=1;fontSize=16;" edge="1" parent="1" source="nh_kpFUz8vDS3uLYSLqD-12" target="nh_kpFUz8vDS3uLYSLqD-14">
          <mxGeometry relative="1" as="geometry" />
        </mxCell>
        <mxCell id="nh_kpFUz8vDS3uLYSLqD-11" value="是" style="edgeStyle=orthogonalEdgeStyle;rounded=0;orthogonalLoop=1;jettySize=auto;html=1;fontSize=16;" edge="1" parent="1" source="nh_kpFUz8vDS3uLYSLqD-12" target="nh_kpFUz8vDS3uLYSLqD-17">
          <mxGeometry relative="1" as="geometry">
            <mxPoint x="310" y="790" as="targetPoint" />
          </mxGeometry>
        </mxCell>
        <mxCell id="nh_kpFUz8vDS3uLYSLqD-12" value="成功？" style="rhombus;whiteSpace=wrap;html=1;rounded=0;fontSize=16;" vertex="1" parent="1">
          <mxGeometry x="270" y="620" width="80" height="80" as="geometry" />
        </mxCell>
        <mxCell id="nh_kpFUz8vDS3uLYSLqD-13" style="edgeStyle=orthogonalEdgeStyle;rounded=0;orthogonalLoop=1;jettySize=auto;html=1;entryX=0;entryY=0.5;entryDx=0;entryDy=0;exitX=0.5;exitY=0;exitDx=0;exitDy=0;fontSize=16;" edge="1" parent="1" source="nh_kpFUz8vDS3uLYSLqD-14" target="nh_kpFUz8vDS3uLYSLqD-9">
          <mxGeometry relative="1" as="geometry" />
        </mxCell>
        <mxCell id="nh_kpFUz8vDS3uLYSLqD-14" value="手动触发" style="whiteSpace=wrap;html=1;rounded=0;fontSize=16;" vertex="1" parent="1">
          <mxGeometry x="90" y="630" width="120" height="60" as="geometry" />
        </mxCell>
        <mxCell id="nh_kpFUz8vDS3uLYSLqD-15" style="edgeStyle=orthogonalEdgeStyle;rounded=0;orthogonalLoop=1;jettySize=auto;html=1;entryX=1;entryY=0.5;entryDx=0;entryDy=0;exitX=0.5;exitY=0;exitDx=0;exitDy=0;fontSize=16;" edge="1" parent="1" source="nh_kpFUz8vDS3uLYSLqD-16" target="nh_kpFUz8vDS3uLYSLqD-4">
          <mxGeometry relative="1" as="geometry" />
        </mxCell>
        <mxCell id="nh_kpFUz8vDS3uLYSLqD-16" value="节点接入" style="shape=process;whiteSpace=wrap;html=1;backgroundOutline=1;rounded=0;fontSize=16;" vertex="1" parent="1">
          <mxGeometry x="440" y="330" width="120" height="60" as="geometry" />
        </mxCell>
        <mxCell id="nh_kpFUz8vDS3uLYSLqD-17" value="结束" style="ellipse;whiteSpace=wrap;html=1;fontSize=16;" vertex="1" parent="1">
          <mxGeometry x="250" y="790" width="120" height="80" as="geometry" />
        </mxCell>
      </root>
    </mxGraphModel>
  </diagram>
</mxfile>
